<svg xmlns="http://www.w3.org/2000/svg" viewBox="0 0 64 64"><path d="M9 42C1 36 3 24 9 22C15 24 17 36 9 42z" fill="#639922" stroke="#444441" stroke-width="2" stroke-linejoin="round"/><path d="M9 42V26" stroke="#444441" stroke-width="1.2"/><path d="M32 42C24 36 26 24 32 22C38 24 40 36 32 42z" fill="#E8B62C" stroke="#444441" stroke-width="2" stroke-linejoin="round"/><path d="M32 42V26" stroke="#444441" stroke-width="1.2"/><path d="M55 42C47 36 49 24 55 22C61 24 63 36 55 42z" fill="#D85A30" stroke="#444441" stroke-width="2" stroke-linejoin="round"/><path d="M55 42V26" stroke="#444441" stroke-width="1.2"/><path d="M15 50L25 50M21.6 52.1L25 50L21.6 47.9" fill="none" stroke="#B4B2A9" stroke-width="2.4" stroke-linecap="round" stroke-linejoin="round"/><path d="M38 50L48 50M44.6 52.1L48 50L44.6 47.9" fill="none" stroke="#B4B2A9" stroke-width="2.4" stroke-linecap="round" stroke-linejoin="round"/></svg>