<svg xmlns="http://www.w3.org/2000/svg" viewBox="0 0 64 64"><path d="M4 58L60 58" fill="none" stroke="#444441" stroke-width="3" stroke-linecap="round" stroke-linejoin="round"/><path d="M18 43.8L14.9 50.3L13.6 57.2" fill="none" stroke="#E24B4A" stroke-width="6.015384615384615" stroke-linecap="round" stroke-linejoin="round"/><path d="M18 43.8L21.1 50.3L22.4 57.2" fill="none" stroke="#E24B4A" stroke-width="6.015384615384615" stroke-linecap="round" stroke-linejoin="round"/><path d="M18 36.6L18 43.8" fill="none" stroke="#E24B4A" stroke-width="7.846153846153847" stroke-linecap="round" stroke-linejoin="round"/><path d="M18 38.1L12 36L10 42" fill="none" stroke="#F6C98C" stroke-width="4.184615384615385" stroke-linecap="round" stroke-linejoin="round"/><path d="M18 38.1L24 34L30 30" fill="none" stroke="#F6C98C" stroke-width="4.184615384615385" stroke-linecap="round" stroke-linejoin="round"/><circle cx="18" cy="29.5" r="6" fill="#F6C98C" stroke="#444441" stroke-width="2"/><circle cx="15.7" cy="28.8" r="0.8" fill="#444441"/><circle cx="20.3" cy="28.8" r="0.8" fill="#444441"/><path d="M15.6 31.3q2.4 2.1 4.8 0" fill="none" stroke="#444441" stroke-width="1.3" stroke-linecap="round"/><rect x="29" y="22" width="6" height="10" rx="3" fill="#444441"/><path d="M32 32v4" stroke="#444441" stroke-width="2"/><rect x="42" y="18" width="16" height="12" rx="2" fill="#B4B2A9" stroke="#444441" stroke-width="2"/><circle cx="50" cy="24" r="3.5" fill="#444441"/><path d="M58 21l4-2v10l-4-2z" fill="#B4B2A9" stroke="#444441" stroke-width="1.6" stroke-linejoin="round"/><path d="M46 30l-4 28M54 30l4 28M50 30v28" stroke="#444441" stroke-width="1.6"/><circle cx="46" cy="14" r="2.2" fill="#E24B4A"/></svg>