<svg xmlns="http://www.w3.org/2000/svg" viewBox="0 0 64 64"><path d="M50 12h11v43H50z" fill="#8A5A2B" stroke="#444441" stroke-width="3" stroke-linejoin="round"/><circle cx="53.5" cy="35" r="1.6" fill="#FAC775"/><path d="M2 55h60" stroke="#444441" stroke-width="3" stroke-linecap="round"/><path d="M4 54v-9q0-11 7-12q7 1 7 12v9z" fill="#378ADD" stroke="#444441" stroke-width="2"/><circle cx="11" cy="26" r="5.5" fill="#E8B08A" stroke="#444441" stroke-width="2"/><path d="M7 11h8l-4 6z" fill="#E24B4A" stroke="#444441" stroke-width="1.5" stroke-linejoin="round"/><path d="M18 54v-9q0-11 7-12q7 1 7 12v9z" fill="#B4B2A9" stroke="#444441" stroke-width="2"/><circle cx="25" cy="26" r="5.5" fill="#D3D1C7" stroke="#444441" stroke-width="2"/><path d="M32 54v-9q0-11 7-12q7 1 7 12v9z" fill="#B4B2A9" stroke="#444441" stroke-width="2"/><circle cx="39" cy="26" r="5.5" fill="#D3D1C7" stroke="#444441" stroke-width="2"/><path d="M6 60.5L44.0 60.5M37.9 63.9L44.0 60.5L37.9 57.1" fill="none" stroke="#444441" stroke-width="7" stroke-linecap="round" stroke-linejoin="round"/><path d="M6 60.5L44.0 60.5M37.9 63.9L44.0 60.5L37.9 57.1" fill="none" stroke="#EF9F27" stroke-width="3.5" stroke-linecap="round" stroke-linejoin="round"/></svg>