<svg xmlns="http://www.w3.org/2000/svg" viewBox="0 0 64 64"><path d="M2 58L62 58" fill="none" stroke="#444441" stroke-width="3" stroke-linecap="round" stroke-linejoin="round"/><rect x="34" y="40" width="24" height="16" rx="3" fill="#B4B2A9" stroke="#444441" stroke-width="2"/><path d="M30 42L34 42" fill="none" stroke="#444441" stroke-width="3" stroke-linecap="round" stroke-linejoin="round"/><path d="M58 42L62 42" fill="none" stroke="#444441" stroke-width="3" stroke-linecap="round" stroke-linejoin="round"/><ellipse cx="46" cy="40" rx="12" ry="3" fill="#EF9F27" stroke="#444441" stroke-width="1.8"/><path d="M40 32q2-4 0-8M48 32q2-4 0-8" fill="none" stroke="#B4B2A9" stroke-width="1.6" stroke-linecap="round" stroke-linejoin="round"/><path d="M16 29L16 42" fill="none" stroke="#5B8DEF" stroke-width="7.5" stroke-linecap="round" stroke-linejoin="round"/><path d="M16 42L14 49.5L12 57" fill="none" stroke="#5B8DEF" stroke-width="6.0" stroke-linecap="round" stroke-linejoin="round"/><path d="M16 42L18 49.5L20 57" fill="none" stroke="#5B8DEF" stroke-width="6.0" stroke-linecap="round" stroke-linejoin="round"/><path d="M16 30.5L23 32.5L23 23.5" fill="none" stroke="#F6C98C" stroke-width="4.5" stroke-linecap="round" stroke-linejoin="round"/><path d="M16 30.5L12 37.5L10 43.5" fill="none" stroke="#F6C98C" stroke-width="4.5" stroke-linecap="round" stroke-linejoin="round"/><circle cx="16" cy="21.8" r="6" fill="#F6C98C" stroke="#444441" stroke-width="2"/><path d="M23 22L30 30" fill="none" stroke="#B4B2A9" stroke-width="2.5" stroke-linecap="round" stroke-linejoin="round"/><ellipse cx="22" cy="21" rx="2.6" ry="1.8" fill="#B4B2A9" stroke="#444441" stroke-width="1.3"/><path d="M32 18L33 24L38 18" fill="#FFFFFF" stroke="#444441" stroke-width="2" stroke-linecap="round" stroke-linejoin="round"/><rect x="30" y="2" width="18" height="16" rx="6" fill="#FFFFFF" stroke="#444441" stroke-width="2"/><path d="M33 16.8H37V18.5H33Z" fill="#FFFFFF"/><path d="M36.3 4.9q0-3.6 3.1-3.6t3.1 3.1c0 2.7-3.1 2.7-3.1 5.4" fill="none" stroke="#E24B4A" stroke-width="2.4" stroke-linecap="round" stroke-linejoin="round"/><circle cx="39.5" cy="13.5" r="1.4" fill="#E24B4A"/></svg>