<svg xmlns="http://www.w3.org/2000/svg" viewBox="0 0 64 64"><rect x="8" y="6" width="38" height="52" rx="1" fill="#FFFFFF" stroke="#444441" stroke-width="2"/><path d="M16 14L38 14" fill="none" stroke="#B4B2A9" stroke-width="1.8" stroke-linecap="round" stroke-linejoin="round"/><path d="M18 21L34 21" fill="none" stroke="#B4B2A9" stroke-width="1.8" stroke-linecap="round" stroke-linejoin="round"/><path d="M16 28L38 28" fill="none" stroke="#B4B2A9" stroke-width="1.8" stroke-linecap="round" stroke-linejoin="round"/><path d="M18 35L34 35" fill="none" stroke="#B4B2A9" stroke-width="1.8" stroke-linecap="round" stroke-linejoin="round"/><path d="M16 42L38 42" fill="none" stroke="#B4B2A9" stroke-width="1.8" stroke-linecap="round" stroke-linejoin="round"/><path d="M18 49L34 49" fill="none" stroke="#B4B2A9" stroke-width="1.8" stroke-linecap="round" stroke-linejoin="round"/><path d="M27 56.2C23.9 54 24.4 51.8 25.8 51.8C26.6 51.8 27 52.6 27 53C27 52.6 27.4 51.8 28.2 51.8C29.6 51.8 30.1 54 27 56.2z" fill="#E24B4A" stroke="#444441" stroke-width="1.8" stroke-linejoin="round"/><path d="M60 4Q48 10 44 30L42 36L46 32Q54 22 60 4Z" fill="#FFFFFF" stroke="#444441" stroke-width="1.6" stroke-linecap="round" stroke-linejoin="round"/><path d="M42 36L40 40" fill="none" stroke="#444441" stroke-width="1.6" stroke-linecap="round" stroke-linejoin="round"/></svg>