<svg xmlns="http://www.w3.org/2000/svg" viewBox="0 0 64 64"><path d="M20 56c-4-10-4-20 0-28l6 2c-2 8-2 16 0 26z" fill="#639922"/><path d="M26 30c-8-4-12-10-10-18 8 2 12 8 10 18z" fill="#3B6D11"/><path d="M26 32c8-6 12-12 12-20-8 2-14 10-12 20z" fill="#97C459"/><path d="M44 20 54 8" stroke="#8A5A2B" stroke-width="5" stroke-linecap="round"/><path d="M38 26c0-6 4-10 8-8s4 8-2 12z" fill="#888780" stroke="#444441" stroke-width="2.5" stroke-linejoin="round"/><path d="M12 56h40" stroke="#8A5A2B" stroke-width="4" stroke-linecap="round"/></svg>
